<?xml version="1.0" encoding="UTF-8" standalone="no"?>
<!-- Created with Inkscape (http://www.inkscape.org/) -->

<svg
   xmlns:dc="http://purl.org/dc/elements/1.1/"
   xmlns:cc="http://creativecommons.org/ns#"
   xmlns:rdf="http://www.w3.org/1999/02/22-rdf-syntax-ns#"
   xmlns:svg="http://www.w3.org/2000/svg"
   xmlns="http://www.w3.org/2000/svg"
   xmlns:sodipodi="http://sodipodi.sourceforge.net/DTD/sodipodi-0.dtd"
   xmlns:inkscape="http://www.inkscape.org/namespaces/inkscape"
   width="64"
   height="64"
   viewBox="0 0 16.933333 16.933333"
   version="1.1"
   id="svg8"
   inkscape:version="0.92.3 (2405546, 2018-03-11)"
   sodipodi:docname="04-Location.svg">
  <defs
     id="defs2" />
  <sodipodi:namedview
     id="base"
     pagecolor="#ffffff"
     bordercolor="#666666"
     borderopacity="1.0"
     inkscape:pageopacity="0.0"
     inkscape:pageshadow="2"
     inkscape:zoom="3.9999998"
     inkscape:cx="68.083107"
     inkscape:cy="-16.440495"
     inkscape:document-units="px"
     inkscape:current-layer="layer2"
     showgrid="false"
     inkscape:snap-smooth-nodes="true"
     inkscape:snap-page="true"
     inkscape:snap-midpoints="false"
     inkscape:snap-intersection-paths="true"
     inkscape:object-paths="true"
     inkscape:object-nodes="true"
     units="px"
     inkscape:snap-bbox="true"
     inkscape:bbox-paths="false"
     inkscape:snap-bbox-midpoints="false"
     inkscape:window-width="1920"
     inkscape:window-height="1040"
     inkscape:window-x="0"
     inkscape:window-y="0"
     inkscape:window-maximized="1"
     inkscape:snap-grids="false"
     inkscape:snap-to-guides="false"
     inkscape:snap-bbox-edge-midpoints="false"
     inkscape:snap-nodes="true"
     inkscape:snap-others="false"
     inkscape:bbox-nodes="true"
     showguides="false"
     inkscape:guide-bbox="true"
     inkscape:measure-start="0,0"
     inkscape:measure-end="0,0"
     inkscape:snap-global="true">
    <inkscape:grid
       type="xygrid"
       id="grid815"
       enabled="true" />
  </sodipodi:namedview>
  <metadata
     id="metadata5">
    <rdf:RDF>
      <cc:Work
         rdf:about="">
        <dc:format>image/svg+xml</dc:format>
        <dc:type
           rdf:resource="http://purl.org/dc/dcmitype/StillImage" />
        <dc:title />
      </cc:Work>
    </rdf:RDF>
  </metadata>
  <g
     inkscape:groupmode="layer"
     id="layer2"
     inkscape:label="04-Location">
    <path
       style="opacity:1;fill:#a8c5f7;fill-opacity:1;stroke:none;stroke-width:0.52916664;stroke-linecap:round;stroke-linejoin:round;stroke-miterlimit:4;stroke-dasharray:none;stroke-dashoffset:0;stroke-opacity:1"
       d="m 10.725434,13.034928 c 3.627303,0.231177 5.892613,0.97633 5.32895,1.752909 -0.563661,0.776579 -3.786895,1.351198 -7.582388,1.351743 -3.795493,5.45e-4 -7.02258,-0.573148 -7.59145,-1.349564 -0.56887,-0.776416 1.691438,-1.522218 5.317185,-1.754437"
       id="path4351"
       inkscape:connector-curvature="0"
       sodipodi:nodetypes="ccccc" />
    <path
       inkscape:connector-curvature="0"
       style="opacity:1;fill:#91b8fb;fill-opacity:1;stroke:none;stroke-width:0.52916664;stroke-linecap:round;stroke-linejoin:round;stroke-miterlimit:4;stroke-dasharray:none;stroke-dashoffset:0;stroke-opacity:1"
       d="m 6.207787,16.076161 4.527889,-5.2e-4 c 3.625613,-0.232233 5.885809,-0.978015 5.316988,-1.75441 -0.130163,-0.175555 -0.401791,-0.345346 -0.803569,-0.5023 0.120857,0.07766 0.212596,0.157139 0.274402,0.23772 0.568821,0.776395 -1.691375,1.522177 -5.316988,1.75441 l -4.527889,5.2e-4 c -1.946098,-0.124429 -3.573199,-0.403856 -4.522721,-0.7767 0.754764,0.497748 2.6433,0.887007 5.051888,1.04128 z"
       id="path4370"
       sodipodi:nodetypes="ccccccccc" />
    <path
       style="opacity:1;fill:#91b8fb;fill-opacity:1;stroke:none;stroke-width:0.52916664;stroke-linecap:round;stroke-linejoin:round;stroke-miterlimit:4;stroke-dasharray:none;stroke-dashoffset:0;stroke-opacity:1"
       d="m 6.543761,13.035398 c 0.748964,0.794893 1.329634,1.30638 1.329634,1.30638 0.310944,0.316921 0.716619,0.474906 1.122413,0.474906 0.405797,0 0.811469,-0.157985 1.122413,-0.474906 0,0 0.556112,-0.490696 1.281575,-1.256255 -0.220853,-0.01905 -0.445891,-0.03594 -0.674377,-0.05065 z"
       id="path7445"
       inkscape:connector-curvature="0"
       sodipodi:nodetypes="ccccccc" />
    <path
       inkscape:connector-curvature="0"
       id="path4372"
       d="m 10.725422,13.034863 -4.527889,5.3e-4 c -3.625633,0.232234 -5.885835,0.978021 -5.316988,1.75442 0.130168,0.175551 0.401796,0.345339 0.803569,0.50229 C 1.56326,15.214443 1.47152,15.134971 1.409712,15.054393 0.840891,14.277998 3.101087,13.532216 6.7267,13.299983 l 4.527889,-5.3e-4 c 1.94609,0.124427 3.573189,0.40385 4.522721,0.77669 -0.754764,-0.497748 -2.6433,-0.887007 -5.051888,-1.04128 z"
       style="opacity:1;fill:#f8f8f8;fill-opacity:1;stroke:none;stroke-width:0.52916664;stroke-linecap:round;stroke-linejoin:round;stroke-miterlimit:4;stroke-dasharray:none;stroke-dashoffset:0;stroke-opacity:1"
       sodipodi:nodetypes="ccccccccc" />
    <path
       style="opacity:1;fill:#e2e7fa;fill-opacity:1;stroke:none;stroke-width:0.52916664;stroke-linecap:round;stroke-linejoin:round;stroke-miterlimit:4;stroke-dasharray:none;stroke-dashoffset:0;stroke-opacity:1"
       d="m 2.645807,6.7265328 c 0,3.23604 4.69842,7.3504502 4.69842,7.3504502 0.310942,0.31692 0.716618,0.4751 1.122412,0.4751 0.405796,0 0.811471,-0.15818 1.122413,-0.4751 0,0 4.698421,-4.1144102 4.698421,-7.3504502 0,-3.27659 -2.606076,-5.93277999 -5.820834,-5.93277999 -3.214757,0 -5.820832,2.65618999 -5.820832,5.93277999 z"
       id="path4377"
       inkscape:connector-curvature="0"
       sodipodi:nodetypes="ccccccc" />
    <path
       inkscape:connector-curvature="0"
       style="opacity:1;fill:#f8f8f8;fill-opacity:1;stroke:none;stroke-width:0.52916664;stroke-linecap:round;stroke-linejoin:round;stroke-miterlimit:4;stroke-dasharray:none;stroke-dashoffset:0;stroke-opacity:1"
       d="m 8.731229,0.80075281 c -3.091942,0.141 -5.55625,2.74004999 -5.55625,5.92624999 0,3.23604 4.698421,7.3504602 4.698421,7.3504602 0.243059,0.24773 0.544191,0.39712 0.857829,0.45113 -0.0876,0.0151 -0.175992,0.0238 -0.264584,0.0238 -0.405795,0 -0.81147,-0.15798 -1.122412,-0.4749 0,0 -4.698421,-4.1144202 -4.698421,-7.3504602 0,-3.27659 2.606075,-5.93296999 5.820833,-5.93312499 0.08868,-1.55e-4 0.17687,0.002845 0.264584,0.006845 z"
       id="path4380"
       sodipodi:nodetypes="ccccccccc" />
    <path
       inkscape:connector-curvature="0"
       id="path4383"
       d="m 8.202062,0.80075281 c 3.091942,0.141 5.55625,2.74004999 5.55625,5.92624999 0,3.23604 -4.698421,7.3504602 -4.698421,7.3504602 -0.243059,0.24773 -0.544191,0.39712 -0.857829,0.45113 0.0876,0.0151 0.175992,0.0238 0.264584,0.0238 0.405796,0 0.81147,-0.15798 1.122412,-0.4749 0,0 4.698421,-4.1144202 4.698421,-7.3504602 0,-3.27659 -2.606075,-5.93296999 -5.820833,-5.93312499 -0.08868,-1.55e-4 -0.17687,0.002845 -0.264584,0.006845 z"
       style="opacity:1;fill:#c4d2f0;fill-opacity:1;stroke:none;stroke-width:0.52916664;stroke-linecap:round;stroke-linejoin:round;stroke-miterlimit:4;stroke-dasharray:none;stroke-dashoffset:0;stroke-opacity:1"
       sodipodi:nodetypes="ccccccccc" />
    <path
       style="opacity:1;fill:#a8c5f7;fill-opacity:1;stroke:none;stroke-width:0.52916664;stroke-linecap:butt;stroke-linejoin:round;stroke-miterlimit:4;stroke-dasharray:none;stroke-dashoffset:0;stroke-opacity:1"
       d="m 12.43539,6.6145807 c 0,2.1918801 -1.77687,3.9687503 -3.96875,3.9687503 -2.19188,0 -3.96875,-1.7768702 -3.96875,-3.9687503 0,-2.1918801 1.77687,-3.96875 3.96875,-3.96875 2.19188,0 3.96875,1.7768699 3.96875,3.96875 z"
       id="circle4385"
       inkscape:connector-curvature="0"
       sodipodi:nodetypes="ccccc" />
    <path
       inkscape:connector-curvature="0"
       id="path4393"
       d="m 8.466646,2.6458328 c -2.19188,-10e-8 -3.96875,1.7768699 -3.96875,3.96875 7.84e-4,1.1857588 0.531722,2.3090534 1.447456,3.06235 -0.592142,-0.711468 -0.916971,-1.6075361 -0.91829,-2.53318 0,-2.1918801 1.77687,-3.9687501 3.96875,-3.96875 0.92009,7.387e-4 1.811337,0.3211406 2.521293,0.9064 -0.75294,-0.9080896 -1.870822,-1.4341734 -3.050459,-1.43557 z"
       style="opacity:1;fill:#91b8fb;fill-opacity:1;stroke:none;stroke-width:0.52916664;stroke-linecap:butt;stroke-linejoin:round;stroke-miterlimit:4;stroke-dasharray:none;stroke-dashoffset:0;stroke-opacity:1"
       sodipodi:nodetypes="ccccccc" />
    <path
       inkscape:connector-curvature="0"
       id="path4395"
       d="m 11.722261,4.3532228 c 0.294767,0.5773138 0.448486,1.2162782 0.448551,1.86449 -10e-7,2.2649417 -1.836099,4.1010392 -4.101041,4.1010402 -0.660876,-0.0011 -1.311698,-0.161903 -1.897042,-0.4687102 0.670231,0.4761252 1.471784,0.7323552 2.293917,0.7332902 2.19188,0 3.96875,-1.7768701 3.96875,-3.9687502 -0.0017,-0.808845 -0.25054,-1.5978547 -0.713135,-2.26136 z"
       style="opacity:1;fill:#f8f8f8;fill-opacity:1;stroke:none;stroke-width:0.52916664;stroke-linecap:butt;stroke-linejoin:round;stroke-miterlimit:4;stroke-dasharray:none;stroke-dashoffset:0;stroke-opacity:1"
       sodipodi:nodetypes="ccccccc" />
    <path
       id="path4399"
       d="m 8.88185,5.5969628 c 0.970198,0.19296 1.701461,1.04906 1.701461,2.07595 H 6.349983 v 0 c 0,-1.0271 0.731565,-1.88334 1.702056,-2.07607 z"
       style="opacity:1;fill:#e2e7fa;fill-opacity:1;stroke:none;stroke-width:0.52916664;stroke-linecap:butt;stroke-linejoin:round;stroke-miterlimit:4;stroke-dasharray:none;stroke-dashoffset:0;stroke-opacity:1"
       inkscape:connector-curvature="0"
       sodipodi:nodetypes="ccccc" />
    <path
       inkscape:connector-curvature="0"
       style="opacity:1;fill:#f8f8f8;fill-opacity:1;stroke:none;stroke-width:0.52916664;stroke-linecap:butt;stroke-linejoin:round;stroke-miterlimit:4;stroke-dasharray:none;stroke-dashoffset:0;stroke-opacity:1"
       d="m 8.58085,5.5970728 c -0.970198,0.19297 -1.701704,1.04895 -1.701704,2.07585 H 6.349979 c 0,-1.0269 0.731507,-1.88288 1.701705,-2.07585 z"
       id="path4401"
       sodipodi:nodetypes="ccccc" />
    <path
       inkscape:connector-curvature="0"
       id="path4403"
       d="m 8.352441,5.5970728 c 0.970198,0.19297 1.701705,1.04895 1.701705,2.07585 h 0.529166 c 0,-1.0269 -0.731507,-1.88288 -1.701705,-2.07585 z"
       style="opacity:1;fill:#c4d2f0;fill-opacity:1;stroke:none;stroke-width:0.52916664;stroke-linecap:butt;stroke-linejoin:round;stroke-miterlimit:4;stroke-dasharray:none;stroke-dashoffset:0;stroke-opacity:1"
       sodipodi:nodetypes="ccccc" />
    <path
       style="opacity:1;fill:#e2e7fa;fill-opacity:1;stroke:none;stroke-width:0.52916664;stroke-linecap:butt;stroke-linejoin:round;stroke-miterlimit:4;stroke-dasharray:none;stroke-dashoffset:0;stroke-opacity:1"
       d="m 8.995807,5.291659 c 0,0.2922508 -0.236916,0.5291668 -0.529167,0.5291666 -0.292251,2e-7 -0.529167,-0.2369158 -0.529167,-0.5291666 0,-0.2922508 0.236916,-0.5291669 0.529167,-0.5291667 0.292251,-2e-7 0.529167,0.2369159 0.529167,0.5291667 z"
       id="circle4405"
       inkscape:connector-curvature="0"
       sodipodi:nodetypes="ccccc" />
    <path
       style="color:#000000;font-style:normal;font-variant:normal;font-weight:normal;font-stretch:normal;font-size:medium;line-height:normal;font-family:sans-serif;font-variant-ligatures:normal;font-variant-position:normal;font-variant-caps:normal;font-variant-numeric:normal;font-variant-alternates:normal;font-feature-settings:normal;text-indent:0;text-align:start;text-decoration:none;text-decoration-line:none;text-decoration-style:solid;text-decoration-color:#000000;letter-spacing:normal;word-spacing:normal;text-transform:none;writing-mode:lr-tb;direction:ltr;text-orientation:mixed;dominant-baseline:auto;baseline-shift:baseline;text-anchor:start;white-space:normal;shape-padding:0;clip-rule:nonzero;display:inline;overflow:visible;visibility:visible;opacity:1;isolation:auto;mix-blend-mode:normal;color-interpolation:sRGB;color-interpolation-filters:linearRGB;solid-color:#000000;solid-opacity:1;vector-effect:none;fill:#66a0fe;fill-opacity:1;fill-rule:nonzero;stroke:none;stroke-width:0.52917105;stroke-linecap:round;stroke-linejoin:round;stroke-miterlimit:4;stroke-dasharray:none;stroke-dashoffset:0;stroke-opacity:1;color-rendering:auto;image-rendering:auto;shape-rendering:auto;text-rendering:auto;enable-background:accumulate"
       d="m 8.4669145,0.52916697 c -3.36786,0 -6.0855201,2.78067213 -6.0855201,6.19755493 0,1.7124521 1.2196099,3.6045521 2.40971,5.0565381 0.3067899,0.374298 0.60907,0.716992 0.8935,1.024227 -1.59645,0.126658 -2.90165,0.353251 -3.79621,0.647506 -0.4938,0.162429 -0.88188,0.35582 -1.10331,0.568957 -0.12229,0.117707 -0.22172,0.263663 -0.24857,0.433049 -0.0269,0.169387 0.0208,0.338705 0.12919,0.486275 0.18259,0.254835 0.54661,0.459592 1.00978,0.630969 0.46316,0.171376 1.05046,0.319042 1.73635,0.441317 1.3717899,0.244553 3.1377601,0.388332 5.0550801,0.388606 1.9173205,-2.64e-4 3.6832915,-0.144056 5.0550705,-0.388606 0.68589,-0.122275 1.273201,-0.269941 1.736361,-0.441317 0.46316,-0.171377 0.827189,-0.376134 1.009769,-0.630969 0.10835,-0.14757 0.15553,-0.316888 0.12868,-0.486275 -0.0268,-0.169386 -0.12576,-0.314825 -0.24805,-0.432532 -0.22144,-0.213137 -0.60951,-0.407045 -1.10331,-0.569474 -0.89447,-0.294224 -2.20095,-0.52084 -3.79725,-0.647506 0.28443,-0.307235 0.587751,-0.649929 0.89453,-1.024227 1.1901,-1.451986 2.40972,-3.344086 2.40972,-5.0565381 0,-3.4168828 -2.71766,-6.19755492 -6.0855205,-6.19755493 z m 0,0.52968393 c 3.0632205,0 5.5563405,2.531574 5.5563405,5.667871 0,1.525049 -1.12964,3.3064121 -2.28879,4.7206411 -1.159149,1.41423 -2.3228906,2.433443 -2.3228906,2.433443 -0.27471,0.279847 -0.6076199,0.406177 -0.9446599,0.406177 -0.33705,0 -0.6699602,-0.12633 -0.9446601,-0.406177 0,0 -1.1637499,-1.019213 -2.3229001,-2.433443 C 4.0402044,10.033134 2.9105644,8.2517709 2.9105644,6.7267219 c 0,-3.136297 2.49313,-5.667871 5.5563501,-5.667871 z m 0,1.3224001 c -2.33491,0 -4.23341,1.8927771 -4.23341,4.2338501 0,2.3410719 1.8985,4.2322989 4.23341,4.2322989 2.3349105,0 4.2323715,-1.891227 4.2323715,-4.2322989 0,-2.341073 -1.897461,-4.2338501 -4.2323715,-4.2338501 z m 0,0.529166 c 2.0406505,0 3.7031905,1.655795 3.7031905,3.7046841 0,2.0426867 -1.65427,3.7031319 -3.7031905,3.7031319 -2.0489301,0 -3.7032001,-1.6604452 -3.7032001,-3.7031319 0,-2.0488891 1.6625401,-3.7046841 3.7032001,-3.7046841 z m -0.79429,2.380217 c 0,0.04557 0.004,0.08871 0.011401,0.1322908 -0.8556,0.2961132 -1.48434,1.0675461 -1.5844099,1.9854093 h -0.014499 c -0.35288,0 -0.35288,0.5291669 0,0.5291669 h 4.7625804 c 0.35288,0 0.35288,-0.5291669 0,-0.5291669 h -0.0145 C 10.733128,6.4904709 10.104388,5.719038 9.248767,5.4229248 c 0.007,-0.04358 0.011401,-0.08672 0.011401,-0.1322908 -3.5e-6,-0.435242 -0.3517935,-0.7927171 -0.7937736,-0.7927171 -0.4419799,0 -0.7937699,0.3574751 -0.7937699,0.7927171 z M 8.4663843,5.0270838 c 0.1435801,0 0.2645902,0.1142903 0.2645902,0.2635502 0,0.1492588 -0.1189501,0.265617 -0.2645902,0.265617 -0.14565,0 -0.26459,-0.1163582 -0.26459,-0.265617 0,-0.1492599 0.1210101,-0.2635502 0.26459,-0.2635502 z m 10e-6,1.0583331 c 0.19498,0 0.3737901,-0.07028 0.5172901,-0.190686 C 9.6597143,6.089705 10.190965,6.667061 10.299905,7.4083341 H 6.6328845 C 6.7418243,6.667061 7.2730844,6.089705 7.9490994,5.8947309 8.0926045,6.015138 8.2714144,6.0854169 8.4663943,6.0854169 Z M 7.1522444,14.259594 c 0.36923,0.374543 0.8407101,0.556556 1.3146701,0.556556 0.4739598,0 0.9454298,-0.182013 1.3146698,-0.556556 0.008,-0.0068 0.4212707,-0.369845 0.9953007,-0.956013 1.76837,0.116445 3.2025,0.359333 4.10215,0.655257 0.4679,0.151896 0.76729,0.316028 0.90228,0.445967 0.0728,0.07004 0.0917,0.121726 0.094,0.136426 0.003,0.02091 -0.009,0.0552 -0.0351,0.09147 -0.0938,0.129238 -0.34751,0.290656 -0.76586,0.44545 -0.41834,0.154794 -0.97954,0.297474 -1.644369,0.415996 -1.329671,0.237018 -3.072441,0.380582 -4.9630815,0.380853 -1.89064,-2.65e-4 -3.6339301,-0.143819 -4.96361,-0.380855 -0.6648301,-0.118522 -1.2260201,-0.261202 -1.6443701,-0.415996 -0.41835,-0.154794 -0.67205,-0.316212 -0.76586,-0.44545 -0.0263,-0.03627 -0.0384,-0.07108 -0.0351,-0.09199 0.002,-0.0147 0.0213,-0.06587 0.0941,-0.135909 0.13499,-0.129939 0.4343801,-0.294071 0.90228,-0.445967 0.89973,-0.295953 2.3350899,-0.538826 4.103665,-0.655255 0.5739949,0.586171 0.985875,0.949192 0.994235,0.956016 z"
       id="path4860"
       inkscape:connector-curvature="0"
       sodipodi:nodetypes="cccccccccccccccccccccccccccccccccccccccccccccccccccccccccccccccccccccccccccccccccc" />
  </g>
</svg>
